<svg id="Layer_1" data-name="Layer 1" xmlns="http://www.w3.org/2000/svg" viewBox="0 0 350.15 353.74"><defs><style>.cls-1,.cls-2{fill:#e94e1e;}.cls-2{stroke:#f7f8f9;stroke-linecap:round;stroke-miterlimit:10;stroke-width:15px;}</style></defs><path class="cls-1" d="M254.43,76A136.47,136.47,0,1,0,390.9,212.44,136.47,136.47,0,0,0,254.43,76Zm1.12,214.53a78.06,78.06,0,1,1,78.07-78.06A78.06,78.06,0,0,1,255.55,290.5Z" transform="translate(-75.08 -40.52)"/><rect class="cls-1" x="155.2" width="46.05" height="55.04"/><rect class="cls-1" x="129.86" y="83.51" width="46.05" height="55.04" transform="translate(-108.81 100.11) rotate(-45)"/><rect class="cls-1" x="89.25" y="184.92" width="46.05" height="55.04" transform="translate(-175.25 284.19) rotate(-90)"/><rect class="cls-1" x="132.24" y="285.34" width="46.05" height="55.04" transform="translate(-31.25 603.36) rotate(-135)"/><rect class="cls-1" x="233.65" y="325.95" width="46.05" height="55.04" transform="translate(438.27 666.43) rotate(-180)"/><rect class="cls-1" x="334.07" y="282.96" width="46.05" height="55.04" transform="translate(754.07 237) rotate(135)"/><rect class="cls-1" x="374.68" y="181.55" width="46.05" height="55.04" transform="translate(531.7 -229.16) rotate(90)"/><rect class="cls-1" x="331.69" y="81.13" width="46.05" height="55.04" transform="translate(105.64 -259.52) rotate(45)"/><path class="cls-2" d="M82.58,337.12l45.81,46.49L233.68,278.32s82.73,14.36,86.83-71.79l-15.72-4.79-30.43,30.43-38.29-38.29,28.72-28.72-.34-18.8s-79.31-8.89-77.95,81.37C186.5,227.73,82.58,335.75,82.58,337.12Z" transform="translate(-75.08 -40.52)"/></svg>