<svg id="Layer_1" data-name="Layer 1" xmlns="http://www.w3.org/2000/svg" viewBox="0 0 500 500"><defs><style>.cls-1{fill:#f7f8f9;stroke:#e94e1e;stroke-miterlimit:10;stroke-width:7px;}.cls-2{fill:#2e2b28;}.cls-3{fill:#e84e1e;}</style></defs><path class="cls-1" d="M454.18,226c0-114.32-92.68-207-207-207s-207,92.68-207,207c0,95.12,64.17,175.25,151.58,199.48l54.76,54.76a.64.64,0,0,0,.92,0l54.61-54.61C389.74,401.59,454.18,321.33,454.18,226Z"/><path class="cls-2" d="M273.15,269.46c-5.9,1.25-3,.81-8.41,2.08-32.18,7.62-78.2-1.41-93.48-29.27-10.37-18.91-10.75-45.15-3.63-65.11-68.56,71.46-17.55,191.07,81.5,191.07a112.39,112.39,0,0,0,66.39-21.58C359.47,314.64,323.78,260.83,273.15,269.46Z"/><path class="cls-3" d="M350.16,219.05c-6-10.48-14.65-17.8-24.52-25.48-9.38-7.3-21.05-16.18-26.12-27.25a24.08,24.08,0,0,1-2.17-9.21c-.09-2.29-.46-7.86.87-9.79-4.16,6.05-11,13.45-13.88,20.12-20.9,47.68,26.51,56.46,15.14,55.2-71.44-7.94-7.3-80.37-4.05-116.91C298.23,74.26,273.54,49,262.32,49c40.51,67.72-54.14,89.33-51.86,129.12-4-34.13,22.36-55.93-15.25-93,7,6.93,4.73,32.63,3.28,41.25-2.69,15.92-10.1,30.31-16.66,44.88-13.23,29.4-14.74,64.11,17.37,82.14,17.33,9.74,44.06,10.67,63,5,42.39-9.56,79.89,16.22,84.19,50.33a108.27,108.27,0,0,0,11.48-42.88c.67-13,.72-27.21-4.15-39.49A56.79,56.79,0,0,0,350.16,219.05Z"/></svg>